# xmcd
#
# Track frame offsets: 
#        150
#        23850
#        43350
#        64202
#        86677
#        109320
#        132214
#        152346
#        176609
#        201426
#        220446
#        242521
#
# Disc length: 3518 seconds
#
# Revision: 0
# Processed by: cddbd v1.5.2PL0 Copyright (c) Steve Scherf et al.
# Submitted via: ExactAudioCopy v0.95b4
#
DISCID=ad0dbc0c
DTITLE=Lisa Stansfield - Lisa Stansfield
DYEAR=1997
DGENRE=Pop
TTITLE0=Never Gonna Fall
TTITLE1=The Real Thing
TTITLE2=I'm Leavin'
TTITLE3=Suzanne
TTITLE4=Never, Never Gonna Give You up
TTITLE5=Don't Cry For Me
TTITLE6=The Line
TTITLE7=The Very Thought Of You
TTITLE8=You Know How To Love Me
TTITLE9=I Cried My Last Tear, Last Night
TTITLE10=Honest
TTITLE11=Somewhere In Time
EXTD=
EXTT0=
EXTT1=
EXTT2=
EXTT3=
EXTT4=
EXTT5=
EXTT6=
EXTT7=
EXTT8=
EXTT9=
EXTT10=
EXTT11=
PLAYORDER=
